<svg width="550" height="250" viewBox="0 0 550 250" fill="none" xmlns="http://www.w3.org/2000/svg">
<path d="M157.4 51C148.6 51 141.3 57.5 140 65.9L137.6 88.8L159 86.3C168 85.5 175.1 77.9 175.1 68.6C175 58.9 167.1 51 157.4 51Z" fill="#1C1C1C"/>
<path d="M77 121.2C77 136.9 89.7 149.7 105.5 149.7C120.5 149.7 132.8 138 133.9 123.3L137.6 88.8L102.7 92.8C88.2 94.3 77 106.4 77 121.2Z" fill="#1C1C1C"/>
<path d="M225.3 141.4C226 114.8 211.6 96.7 188.3 96.7C166 96.7 150.5 113.4 150.5 135.8C150.5 157.5 164.6 175.6 188.9 175.6C209.5 175.6 220.4 163.1 224.5 151.9H204.5C200.6 158.5 194.7 160.6 188.7 160.6C179.5 160.6 170.8 154.3 169.7 141.4H225.3V141.4ZM188.2 110.8C196.3 110.8 205.3 115.3 205.7 128H170C171.5 115.3 180.9 110.8 188.2 110.8Z" fill="#1C1C1C"/>
<path d="M253.4 98.4H234.1V173.7H253.4V134.5C253.4 122.6 256.2 112.2 268.9 112.2C279.8 112.2 281.9 120.7 281.9 130.4V173.7H301.2V126.2C301.2 107.6 293.2 96.7 275.2 96.7C265.8 96.7 257.7 100.6 253.4 108.3V98.4Z" fill="#1C1C1C"/>
<path d="M316.6 98.4H306V111.7H316.6V153.4C316.6 168.4 319.8 173.7 337.2 173.7H351.3V159.8H345.4C338.5 159.8 335.9 158.3 335.9 150.6V111.7H351.6V98.4H335.9V77.9H316.6V98.4V98.4Z" fill="#1C1C1C"/>
<path d="M403.5 98.8C402.2 98.7 400.6 98.5 399.3 98.5C390.5 98.5 383.8 102.1 379.4 111.5V98.3H360.4V173.6H379.7V134.1C379.7 120 386 116.5 395.5 116.5C398.3 116.5 400.7 116.5 403.5 116.9V98.8V98.8Z" fill="#1C1C1C"/>
<path d="M409.8 98.4V173.7H429.1V98.4H409.8ZM419.2 74.2C414 74.2 409.7 78.4 409.7 83.7C409.7 88.9 413.9 93.2 419.2 93.2H419.6C424.8 93.2 429.1 89 429.1 83.7C429.1 78.5 424.9 74.2 419.6 74.2H419.2Z" fill="#1C1C1C"/>
</svg>
